<?xml version="1.0" encoding="UTF-8" standalone="no"?>
<!DOCTYPE svg PUBLIC "-//W3C//DTD SVG 1.1//EN" "http://www.w3.org/Graphics/SVG/1.1/DTD/svg11.dtd">
<svg width="100%" height="100%" viewBox="0 0 436 364" version="1.1" xmlns="http://www.w3.org/2000/svg" xmlns:xlink="http://www.w3.org/1999/xlink" xml:space="preserve" xmlns:serif="http://www.serif.com/" style="fill-rule:evenodd;clip-rule:evenodd;stroke-linejoin:round;stroke-miterlimit:2;">
    <g transform="matrix(1,0,0,1,-182.09,-218.047)">
        <g transform="matrix(0.78125,0,0,0.78125,0,0)">
            <path d="M786.2,395.5L705.6,395.5C704.1,395.5 702.6,394.7 701.9,393.4L637.2,281.2C636.4,279.9 635,279.1 633.4,279.1L369.4,279.1C367.9,279.1 366.4,279.9 365.7,281.2L298.4,397.6L233.6,509.8C232.9,511.1 232.9,512.7 233.6,514.1L298.4,626.3L365.6,742.8C366.3,744.1 367.8,745 369.3,744.9L633.4,744.9C634.9,744.9 636.4,744.1 637.2,742.8L702,630.6C702.7,629.3 704.2,628.4 705.7,628.5L786.3,628.5C789,628.5 791.1,626.3 791.1,623.7L791.1,400.4C791,397.7 788.8,395.5 786.2,395.5ZM477.5,630.6L457.2,665.6C456.9,666.1 456.4,666.6 455.9,666.9C455.3,667.2 454.7,667.4 454,667.4L413.7,667.4C412.3,667.4 411,666.7 410.4,665.4L350.3,561.1L344.4,550.8L322.8,513.9C322.5,513.4 322.3,512.8 322.4,512.1C322.4,511.5 322.6,510.8 322.9,510.3L344.6,472.7L410.5,358.7C411.2,357.5 412.5,356.7 413.8,356.7L454,356.7C454.7,356.7 455.4,356.9 456.1,357.2C456.6,357.5 457.1,357.9 457.4,358.5L477.7,393.7C478.3,394.9 478.2,396.4 477.5,397.5L412.4,510.3C412.1,510.8 412,511.4 412,511.9C412,512.5 412.2,513 412.4,513.5L477.5,626.2C478.4,627.7 478.3,629.3 477.5,630.6ZM679.6,513.9L658,550.8L652.1,561.1L592,665.4C591.3,666.6 590.1,667.4 588.7,667.4L548.4,667.4C547.7,667.4 547.1,667.2 546.5,666.9C546,666.6 545.5,666.2 545.2,665.6L524.9,630.6C524,629.3 524,627.7 524.8,626.4L589.9,513.7C590.2,513.2 590.3,512.6 590.3,512.1C590.3,511.5 590.1,511 589.9,510.5L524.8,397.7C524.1,396.5 524,395.1 524.6,393.9L544.9,358.7C545.2,358.2 545.7,357.7 546.2,357.4C546.8,357 547.5,356.9 548.3,356.9L588.7,356.9C590.1,356.9 591.4,357.6 592,358.9L657.9,472.9L679.6,510.5C679.9,511.1 680.1,511.7 680.1,512.3C680.1,512.7 679.9,513.3 679.6,513.9Z" style="fill:white;fill-rule:nonzero;"/>
        </g>
    </g>
</svg>
