<?xml version="1.0" encoding="UTF-8" standalone="no"?>
<!DOCTYPE svg PUBLIC "-//W3C//DTD SVG 1.1//EN" "http://www.w3.org/Graphics/SVG/1.1/DTD/svg11.dtd">
<svg width="100%" height="100%" viewBox="0 0 946 943" version="1.1" xmlns="http://www.w3.org/2000/svg" xmlns:xlink="http://www.w3.org/1999/xlink" xml:space="preserve" xmlns:serif="http://www.serif.com/" style="fill-rule:evenodd;clip-rule:evenodd;stroke-linejoin:round;stroke-miterlimit:2;">
    <g transform="matrix(1,0,0,1,-22.701,-16.0252)">
        <g transform="matrix(3.77953,0,0,3.77953,2.5862e-05,-156.52)">
            <path d="M153.338,45.652C151.529,45.652 149.849,46.04 148.298,46.557C151.594,48.754 153.403,51.662 154.308,54.958C154.373,55.41 154.502,55.733 154.566,56.185C154.631,56.573 154.695,56.961 154.695,57.349C154.954,63.035 153.209,63.746 151.981,67.106C150.107,71.436 150.624,76.088 152.886,79.836C153.08,80.289 153.338,80.806 153.662,81.258C151.206,64.909 164.841,62.454 167.361,57.349C167.555,52.89 163.871,49.917 160.964,47.85C158.185,46.169 155.665,45.652 153.338,45.652ZM173.887,49.336C173.629,50.822 173.823,50.434 173.758,51.21C173.694,51.727 173.694,52.373 173.629,52.89C173.5,53.407 173.371,53.924 173.177,54.441C173.048,54.958 172.854,55.475 172.66,55.992C172.401,56.509 172.208,56.961 171.949,57.478C171.755,57.736 171.626,57.995 171.432,58.253C171.303,58.447 171.174,58.641 171.044,58.835C170.721,59.287 170.398,59.74 170.075,60.127C169.687,60.515 169.364,60.967 168.912,61.29L168.912,61.355C168.524,61.678 168.137,62.066 167.684,62.389C166.327,63.423 164.776,64.198 163.355,65.168C162.902,65.491 162.45,65.749 162.062,66.137C161.61,66.46 161.222,66.783 160.835,67.171C160.382,67.559 160.059,67.946 159.671,68.399C159.348,68.786 158.961,69.239 158.702,69.691C158.379,70.143 158.056,70.596 157.797,71.048C157.539,71.565 157.345,72.017 157.087,72.534C156.893,73.051 156.699,73.504 156.57,74.021C156.376,74.602 156.247,75.119 156.117,75.636C156.053,75.895 156.053,76.218 155.988,76.476C155.923,76.735 155.923,76.993 155.859,77.252C155.859,77.768 155.794,78.35 155.794,78.867C155.794,79.255 155.794,79.642 155.859,80.03C155.859,80.547 155.924,81.064 156.053,81.646C156.118,82.163 156.247,82.68 156.376,83.197C156.57,83.714 156.699,84.23 156.893,84.747C157.022,85.071 157.216,85.394 157.345,85.652L142.483,79.901C139.963,79.19 137.507,78.544 134.987,77.962C133.63,77.639 132.273,77.316 130.916,76.993C127.039,76.218 123.097,75.636 119.155,75.248C119.026,75.248 118.961,75.184 118.832,75.184C114.955,74.796 111.142,74.602 107.265,74.602C104.422,74.602 101.579,74.731 98.8,74.925C94.858,75.184 90.916,75.701 86.975,76.347C86.005,76.476 85.036,76.67 84.067,76.864C82.063,77.251 80.125,77.704 78.251,78.156C77.282,78.415 76.312,78.673 75.343,78.932C74.374,79.319 73.469,79.772 72.564,80.159C71.854,80.482 71.143,80.806 70.432,81.129C70.303,81.193 70.173,81.193 70.109,81.258C69.463,81.581 68.881,81.839 68.299,82.162C68.106,82.227 67.976,82.292 67.847,82.356C67.136,82.679 66.426,83.067 65.844,83.39C65.392,83.584 64.939,83.843 64.552,84.036C64.358,84.166 64.099,84.295 63.97,84.36C63.388,84.683 62.807,85.006 62.29,85.329C61.708,85.652 61.191,85.975 60.739,86.298C60.287,86.621 59.834,86.88 59.447,87.203C59.382,87.267 59.317,87.267 59.253,87.332C58.865,87.59 58.413,87.913 58.025,88.237C58.025,88.237 57.96,88.301 57.896,88.366C57.573,88.624 57.25,88.883 56.927,89.141C56.797,89.206 56.668,89.335 56.539,89.4C56.216,89.658 55.893,89.981 55.57,90.24C55.505,90.369 55.376,90.434 55.311,90.498C54.923,90.886 54.536,91.209 54.148,91.597C54.083,91.597 54.083,91.662 54.019,91.726C53.631,92.049 53.243,92.437 52.855,92.825C52.791,92.889 52.791,92.954 52.726,92.954C52.403,93.277 52.08,93.6 51.757,93.988C51.628,94.117 51.434,94.246 51.305,94.375C50.982,94.763 50.594,95.151 50.206,95.539C50.141,95.668 50.012,95.732 49.948,95.862C49.431,96.379 48.978,96.896 48.461,97.412C48.397,97.477 48.332,97.542 48.268,97.606C47.234,98.705 46.135,99.803 44.972,100.773C43.809,101.807 42.581,102.776 41.353,103.616C40.061,104.521 38.833,105.296 37.476,106.071C36.184,106.782 34.827,107.429 33.405,108.01C32.048,108.592 30.626,109.109 29.205,109.561C26.491,110.143 23.712,111.241 21.321,111.435C20.804,111.435 20.223,111.564 19.706,111.629C19.124,111.758 18.607,111.887 18.09,112.017C17.573,112.21 17.056,112.404 16.539,112.598C16.022,112.792 15.505,113.05 14.988,113.309C14.536,113.632 14.019,113.89 13.567,114.214C13.114,114.537 12.662,114.924 12.274,115.312C11.822,115.635 11.37,116.088 10.982,116.475C10.594,116.928 10.207,117.315 9.883,117.768C9.56,118.285 9.173,118.737 8.914,119.254C8.591,119.706 8.268,120.223 8.01,120.74C7.751,121.322 7.493,121.839 7.299,122.42C7.105,122.937 6.911,123.519 6.717,124.1C6.588,124.617 6.459,125.134 6.394,125.651C6.394,125.716 6.329,125.78 6.329,125.845C6.2,126.427 6.2,127.202 6.135,127.59C6.071,128.042 6.006,128.43 6.006,128.882C6.006,129.141 6.006,129.464 6.071,129.722C6.136,130.175 6.2,130.562 6.33,130.95C6.459,131.338 6.588,131.725 6.782,132.113L6.782,132.178C6.976,132.566 7.234,132.953 7.493,133.341C7.751,133.729 8.01,134.117 8.333,134.504C8.656,134.827 9.044,135.215 9.431,135.538C9.819,135.926 10.207,136.249 10.659,136.572C12.21,137.929 12.598,138.381 14.601,139.415C14.924,139.609 15.247,139.738 15.635,139.932C15.7,139.932 15.764,139.997 15.829,139.997C15.829,140.126 15.829,140.191 15.893,140.32C15.958,140.837 16.087,141.354 16.217,141.871C16.346,142.453 16.54,142.97 16.733,143.422C16.927,143.81 17.057,144.197 17.25,144.585C17.315,144.714 17.38,144.844 17.444,144.908C17.703,145.425 17.961,145.877 18.22,146.33C18.543,146.782 18.866,147.234 19.189,147.687C19.512,148.074 19.9,148.527 20.288,148.914C20.675,149.302 21.063,149.625 21.515,150.013C21.515,150.013 21.58,150.078 21.644,150.078C22.032,150.401 22.42,150.724 22.808,150.982C23.26,151.306 23.712,151.564 24.229,151.823C24.682,152.081 25.199,152.339 25.716,152.533C26.103,152.727 26.556,152.856 27.008,152.986C27.073,153.051 27.137,153.051 27.266,153.115C27.525,153.18 27.848,153.244 28.107,153.309C27.913,156.798 27.848,160.094 28.365,161.257C28.947,162.549 31.79,158.608 34.633,154.084C34.245,158.543 33.987,163.777 34.633,165.328C35.344,166.943 39.221,161.903 42.581,156.346C88.397,145.748 130.206,177.412 134.6,222.129C133.76,215.15 125.165,211.272 121.223,212.242C119.285,217.024 115.989,223.162 110.69,226.975C111.143,222.71 110.949,218.316 110.044,214.051C108.623,219.996 105.844,225.553 102.031,230.335C95.893,230.788 89.754,227.815 86.523,223.356C86.264,223.162 86.2,222.775 86.006,222.516C85.812,222.064 85.618,221.612 85.489,221.159C85.295,220.707 85.166,220.255 85.101,219.802C85.036,219.35 85.036,218.898 85.036,218.381L85.036,217.411C85.101,216.959 85.23,216.507 85.359,216.054C85.489,215.602 85.618,215.15 85.812,214.697C86.07,214.245 86.264,213.793 86.587,213.34C87.686,210.239 87.686,207.718 85.683,206.232C85.295,205.974 84.907,205.78 84.455,205.586C84.196,205.521 83.873,205.392 83.615,205.327C83.421,205.263 83.292,205.198 83.098,205.133C82.645,205.004 82.193,204.875 81.741,204.81C81.288,204.681 80.836,204.617 80.384,204.617C79.931,204.552 79.414,204.487 78.962,204.487C78.639,204.487 78.316,204.552 77.993,204.552C77.476,204.552 77.024,204.617 76.571,204.746C76.119,204.811 75.667,204.875 75.214,205.005C74.762,205.134 74.309,205.263 73.857,205.457C73.405,205.651 73.017,205.845 72.565,206.038C72.177,206.232 71.789,206.491 71.337,206.685C56.281,216.507 65.263,239.511 75.537,246.167C71.66,246.878 67.718,247.718 66.62,248.558C66.555,248.623 66.491,248.687 66.491,248.687C69.269,250.367 72.177,251.789 75.214,253.017C79.35,254.374 83.744,255.602 85.683,256.119L85.683,256.183C91.046,257.282 96.474,257.669 101.967,257.346C130.593,255.343 154.05,233.566 158.315,204.875C158.444,205.457 158.574,205.974 158.703,206.555C158.897,207.719 159.155,208.946 159.284,210.174L159.284,210.239C159.413,210.82 159.478,211.402 159.543,211.919L159.543,212.178C159.608,212.759 159.672,213.341 159.672,213.858C159.737,214.568 159.801,215.279 159.801,215.99L159.801,217.024C159.801,217.347 159.866,217.735 159.866,218.058C159.866,218.446 159.801,218.833 159.801,219.221L159.801,220.126C159.801,220.578 159.736,220.966 159.736,221.418C159.736,221.677 159.736,221.935 159.672,222.258C159.672,222.711 159.607,223.163 159.607,223.68C159.542,223.874 159.542,224.068 159.542,224.261C159.478,224.778 159.413,225.231 159.348,225.748C159.348,225.942 159.348,226.135 159.284,226.329C159.219,226.975 159.09,227.557 159.025,228.203L159.025,228.333C158.896,228.914 158.767,229.56 158.637,230.142L158.637,230.336C158.508,230.917 158.379,231.499 158.25,232.081C158.25,232.145 158.185,232.275 158.185,232.339C158.056,232.921 157.926,233.502 157.733,234.084L157.733,234.278C157.539,234.924 157.345,235.506 157.216,236.087C157.151,236.152 157.151,236.216 157.151,236.216C156.957,236.863 156.763,237.509 156.569,238.155C156.311,238.801 156.117,239.383 155.859,240.029C155.6,240.675 155.406,241.321 155.148,241.903C154.889,242.549 154.631,243.131 154.372,243.777L154.308,243.777C154.049,244.358 153.791,245.005 153.467,245.586C153.403,245.78 153.338,245.909 153.274,246.038C153.209,246.103 153.209,246.168 153.144,246.232C148.944,254.697 142.741,262.129 134.986,267.945C134.469,268.268 133.952,268.655 133.436,269.043C133.306,269.172 133.112,269.237 132.983,269.366C132.531,269.689 132.078,270.012 131.562,270.335L131.755,270.723L131.82,270.723C132.725,270.594 133.629,270.465 134.534,270.335L134.599,270.335C136.279,270.077 137.959,269.754 139.639,269.431C140.091,269.366 140.608,269.237 141.061,269.108C141.384,269.043 141.642,268.979 141.965,268.914C142.418,268.849 142.87,268.72 143.322,268.655C143.71,268.526 144.098,268.461 144.486,268.332C150.948,266.781 157.216,264.649 163.225,262.129C152.951,276.151 139.187,287.459 123.097,294.891C130.528,294.374 137.959,293.146 145.132,291.078C171.174,283.388 193.08,265.877 206.197,242.29C203.548,257.218 197.603,271.434 188.815,283.841C195.083,279.705 200.834,274.923 206.068,269.495C220.543,254.374 230.042,235.182 233.273,214.569C235.47,224.778 236.116,235.312 235.147,245.715C281.802,180.643 239.024,113.18 221.124,95.41C221.06,95.281 220.995,95.216 220.995,95.087C220.931,95.152 220.931,95.152 220.931,95.216C220.931,95.151 220.931,95.151 220.866,95.087C220.866,95.862 220.801,96.638 220.737,97.413C220.543,98.9 220.349,100.321 220.09,101.743C219.767,103.164 219.38,104.586 218.992,106.008C218.54,107.365 218.023,108.786 217.441,110.143C216.859,111.436 216.213,112.793 215.502,114.085C214.792,115.313 214.016,116.605 213.176,117.768C212.336,118.996 211.431,120.159 210.527,121.258C209.557,122.421 208.524,123.455 207.49,124.489C206.843,125.071 206.262,125.587 205.616,126.104C205.099,126.557 204.646,126.944 204.129,127.397C202.966,128.301 201.803,129.142 200.511,129.917C199.283,130.692 197.991,131.468 196.698,132.114C195.341,132.76 193.984,133.342 192.627,133.923C191.27,134.44 189.849,134.893 188.427,135.28C187.005,135.668 185.519,135.991 184.097,136.25C182.611,136.508 181.125,136.637 179.703,136.767C178.669,136.831 177.635,136.896 176.601,136.896C175.115,136.896 173.629,136.767 172.207,136.637C170.721,136.508 169.235,136.314 167.813,135.991C166.327,135.732 164.905,135.345 163.484,134.892L163.419,134.892C164.841,134.763 166.262,134.634 167.684,134.376C169.17,134.117 170.592,133.794 172.013,133.406C173.435,133.018 174.857,132.566 176.214,132.049C177.635,131.532 178.992,130.886 180.285,130.24C181.642,129.594 182.87,128.883 184.162,128.107C185.39,127.267 186.617,126.427 187.781,125.523C188.944,124.618 190.042,123.649 191.076,122.615C192.175,121.645 193.144,120.547 194.113,119.448C195.083,118.285 195.987,117.122 196.827,115.959C196.956,115.765 197.086,115.507 197.215,115.313C197.861,114.279 198.507,113.245 199.089,112.211C199.8,110.919 200.446,109.626 201.028,108.269C201.609,106.912 202.126,105.555 202.578,104.134C203.031,102.777 203.354,101.355 203.677,99.933C203.936,98.447 204.194,97.025 204.323,95.604C204.452,94.118 204.582,92.631 204.582,91.21C204.582,90.176 204.517,89.142 204.453,88.108C204.324,86.622 204.13,85.2 203.936,83.778C203.677,82.292 203.354,80.871 202.966,79.449C202.514,78.092 202.062,76.67 201.545,75.313C201.028,73.956 200.382,72.599 199.735,71.307C199.025,70.014 198.314,68.722 197.538,67.494C196.698,66.267 195.858,65.103 194.954,63.94C193.984,62.842 193.015,61.743 191.981,60.645C191.464,60.128 190.883,59.546 190.301,59.029C187.393,56.767 184.356,54.635 181.319,52.696C180.867,52.438 180.479,52.244 180.026,52.05C177.894,50.693 175.891,49.982 173.888,49.336L173.887,49.336Z" style="fill:white;"/>
        </g>
    </g>
</svg>
