<?xml version="1.0" encoding="UTF-8" standalone="no"?>
<!DOCTYPE svg PUBLIC "-//W3C//DTD SVG 1.1//EN" "http://www.w3.org/Graphics/SVG/1.1/DTD/svg11.dtd">
<svg width="100%" height="100%" viewBox="0 0 200 200" version="1.1" xmlns="http://www.w3.org/2000/svg" xmlns:xlink="http://www.w3.org/1999/xlink" xml:space="preserve" xmlns:serif="http://www.serif.com/" style="fill-rule:evenodd;clip-rule:evenodd;stroke-linejoin:round;stroke-miterlimit:2;">
    <g transform="matrix(1,0,0,1,-1610.36,-214.761)">
        <g transform="matrix(0.650954,0,0,0.650954,1346.75,-46.311)">
            <path d="M404.96,662.216L404.96,401.061L666.115,401.061C691.551,401.061 712.202,421.712 712.202,447.147L712.202,662.216C712.202,687.652 691.551,708.302 666.115,708.302L451.046,708.302C425.611,708.302 404.96,687.652 404.96,662.216Z" style="fill:rgb(31,40,59);fill-opacity:0;"/>
            <path d="M404.96,662.216L404.96,401.061L666.115,401.061C691.551,401.061 712.202,421.712 712.202,447.147L712.202,662.216C712.202,687.652 691.551,708.302 666.115,708.302L451.046,708.302C425.611,708.302 404.96,687.652 404.96,662.216ZM443.365,662.216C443.365,666.455 446.807,669.897 451.046,669.897L666.115,669.897C670.355,669.897 673.796,666.455 673.796,662.216L673.796,447.147C673.796,442.908 670.355,439.466 666.115,439.466L443.365,439.466L443.365,662.216Z" style="fill:rgb(31,40,59);"/>
        </g>
    </g>
</svg>
