<?xml version="1.0" encoding="UTF-8" standalone="no"?>
<!DOCTYPE svg PUBLIC "-//W3C//DTD SVG 1.1//EN" "http://www.w3.org/Graphics/SVG/1.1/DTD/svg11.dtd">
<svg width="100%" height="100%" viewBox="0 0 200 200" version="1.1" xmlns="http://www.w3.org/2000/svg" xmlns:xlink="http://www.w3.org/1999/xlink" xml:space="preserve" xmlns:serif="http://www.serif.com/" style="fill-rule:evenodd;clip-rule:evenodd;stroke-linejoin:round;stroke-miterlimit:2;">
    <g transform="matrix(1,0,0,1,-1340,-170)">
        <g transform="matrix(0.650954,0,0,0.650954,1076.39,-91.0723)">
            <path d="M404.96,662.216L404.96,401.061L666.115,401.061C691.551,401.061 712.202,421.712 712.202,447.147L712.202,662.216C712.202,687.652 691.551,708.302 666.115,708.302L451.046,708.302C425.611,708.302 404.96,687.652 404.96,662.216ZM539.316,519.449C542.692,519.449 545.9,519.023 548.942,518.171C551.983,517.32 554.667,516.05 556.994,514.362C559.321,512.674 561.153,510.575 562.492,508.066C563.83,505.557 564.499,502.644 564.499,499.329C564.499,496.136 563.906,493.482 562.72,491.368C561.534,489.254 560.036,487.559 558.226,486.281C556.416,485.004 554.546,484.008 552.614,483.293C550.683,482.578 548.957,482.008 547.436,481.582L535.301,478.161C533.75,477.735 532.191,477.195 530.625,476.541C529.058,475.887 527.743,474.997 526.678,473.872C525.614,472.747 525.081,471.272 525.081,469.447C525.081,467.591 525.682,465.949 526.884,464.52C528.085,463.09 529.697,461.98 531.719,461.189C533.742,460.398 535.97,460.033 538.403,460.094C540.928,460.125 543.269,460.619 545.429,461.577C547.588,462.535 549.413,463.904 550.904,465.683C552.394,467.462 553.367,469.584 553.823,472.047L564.043,470.314C563.161,466.268 561.556,462.824 559.23,459.98C556.903,457.136 553.983,454.954 550.47,453.433C546.957,451.913 542.981,451.122 538.54,451.061C534.13,451.061 530.145,451.783 526.587,453.228C523.028,454.673 520.207,456.802 518.124,459.615C516.041,462.429 514.999,465.858 514.999,469.903C514.999,472.579 515.44,474.853 516.322,476.723C517.204,478.594 518.352,480.16 519.766,481.423C521.181,482.685 522.739,483.704 524.443,484.479C526.146,485.255 527.819,485.886 529.461,486.373L546.296,491.345C547.512,491.71 548.63,492.144 549.649,492.646C550.668,493.147 551.535,493.741 552.249,494.425C552.964,495.109 553.527,495.908 553.937,496.82C554.348,497.732 554.553,498.782 554.553,499.968C554.553,502.158 553.877,504.036 552.523,505.602C551.17,507.169 549.383,508.37 547.163,509.206C544.942,510.043 542.509,510.461 539.863,510.461C535.605,510.461 531.879,509.343 528.686,507.108C525.492,504.872 523.393,501.747 522.39,497.732L512.444,499.238C513.174,503.405 514.763,507.001 517.212,510.028C519.66,513.054 522.778,515.381 526.564,517.008C530.351,518.635 534.601,519.449 539.316,519.449ZM476.813,518.08L486.348,518.08L486.348,461.372L508.201,461.372L508.201,452.384L454.96,452.384L454.96,461.372L476.813,461.372L476.813,518.08ZM513.357,609.324L522.892,609.324L522.892,581.267L546.798,581.267L546.798,571.686L522.892,571.686L522.892,553.163L552.272,553.163L552.272,543.628L513.357,543.628L513.357,609.324ZM460.435,609.324L502.407,609.324L502.407,600.337L469.97,600.337L469.97,580.035L496.933,580.035L496.933,571.047L469.97,571.047L469.97,552.616L502.407,552.616L502.407,543.628L460.435,543.628L460.435,609.324Z" style="fill:rgb(31,40,59);"/>
        </g>
    </g>
</svg>
